<svg width="428" height="926" viewBox="0 0 428 926" fill="none" xmlns="http://www.w3.org/2000/svg">
<g clip-path="url(#clip0_3_13)">
<rect width="428" height="926" rx="50" fill="white"/>
<rect x="-194.462" y="576.051" width="370" height="370" transform="rotate(27.0888 -194.462 576.051)" stroke="#F1F4FF" stroke-width="2"/>
<rect x="-305" y="635" width="370" height="370" stroke="#F1F4FF" stroke-width="2"/>
<circle cx="271" cy="77" r="246.5" stroke="#F8F9FF" stroke-width="3"/>
<circle cx="431.5" cy="-38.5" r="317.5" fill="#F8F9FF"/>
<path d="M136.39 126.04H143.11V130H131.26V108.94H136.39V126.04ZM153.177 130.24C151.537 130.24 150.057 129.89 148.737 129.19C147.437 128.49 146.407 127.49 145.647 126.19C144.907 124.89 144.537 123.37 144.537 121.63C144.537 119.91 144.917 118.4 145.677 117.1C146.437 115.78 147.477 114.77 148.797 114.07C150.117 113.37 151.597 113.02 153.237 113.02C154.877 113.02 156.357 113.37 157.677 114.07C158.997 114.77 160.037 115.78 160.797 117.1C161.557 118.4 161.937 119.91 161.937 121.63C161.937 123.35 161.547 124.87 160.767 126.19C160.007 127.49 158.957 128.49 157.617 129.19C156.297 129.89 154.817 130.24 153.177 130.24ZM153.177 125.8C154.157 125.8 154.987 125.44 155.667 124.72C156.367 124 156.717 122.97 156.717 121.63C156.717 120.29 156.377 119.26 155.697 118.54C155.037 117.82 154.217 117.46 153.237 117.46C152.237 117.46 151.407 117.82 150.747 118.54C150.087 119.24 149.757 120.27 149.757 121.63C149.757 122.97 150.077 124 150.717 124.72C151.377 125.44 152.197 125.8 153.177 125.8ZM171.019 113.02C172.199 113.02 173.229 113.26 174.109 113.74C175.009 114.22 175.699 114.85 176.179 115.63V113.26H181.309V129.97C181.309 131.51 180.999 132.9 180.379 134.14C179.779 135.4 178.849 136.4 177.589 137.14C176.349 137.88 174.799 138.25 172.939 138.25C170.459 138.25 168.449 137.66 166.909 136.48C165.369 135.32 164.489 133.74 164.269 131.74H169.339C169.499 132.38 169.879 132.88 170.479 133.24C171.079 133.62 171.819 133.81 172.699 133.81C173.759 133.81 174.599 133.5 175.219 132.88C175.859 132.28 176.179 131.31 176.179 129.97V127.6C175.679 128.38 174.989 129.02 174.109 129.52C173.229 130 172.199 130.24 171.019 130.24C169.639 130.24 168.389 129.89 167.269 129.19C166.149 128.47 165.259 127.46 164.599 126.16C163.959 124.84 163.639 123.32 163.639 121.6C163.639 119.88 163.959 118.37 164.599 117.07C165.259 115.77 166.149 114.77 167.269 114.07C168.389 113.37 169.639 113.02 171.019 113.02ZM176.179 121.63C176.179 120.35 175.819 119.34 175.099 118.6C174.399 117.86 173.539 117.49 172.519 117.49C171.499 117.49 170.629 117.86 169.909 118.6C169.209 119.32 168.859 120.32 168.859 121.6C168.859 122.88 169.209 123.9 169.909 124.66C170.629 125.4 171.499 125.77 172.519 125.77C173.539 125.77 174.399 125.4 175.099 124.66C175.819 123.92 176.179 122.91 176.179 121.63ZM187.6 111.52C186.7 111.52 185.96 111.26 185.38 110.74C184.82 110.2 184.54 109.54 184.54 108.76C184.54 107.96 184.82 107.3 185.38 106.78C185.96 106.24 186.7 105.97 187.6 105.97C188.48 105.97 189.2 106.24 189.76 106.78C190.34 107.3 190.63 107.96 190.63 108.76C190.63 109.54 190.34 110.2 189.76 110.74C189.2 111.26 188.48 111.52 187.6 111.52ZM190.15 113.26V130H185.02V113.26H190.15ZM204.068 113.08C206.028 113.08 207.588 113.72 208.748 115C209.928 116.26 210.518 118 210.518 120.22V130H205.418V120.91C205.418 119.79 205.128 118.92 204.548 118.3C203.968 117.68 203.188 117.37 202.208 117.37C201.228 117.37 200.448 117.68 199.868 118.3C199.288 118.92 198.998 119.79 198.998 120.91V130H193.868V113.26H198.998V115.48C199.518 114.74 200.218 114.16 201.098 113.74C201.978 113.3 202.968 113.08 204.068 113.08ZM230.73 113.08C232.65 113.08 234.19 113.72 235.35 115C236.51 116.26 237.09 118 237.09 120.22V130H231.99V120.91C231.99 119.79 231.7 118.92 231.12 118.3C230.54 117.68 229.76 117.37 228.78 117.37C227.8 117.37 227.02 117.68 226.44 118.3C225.86 118.92 225.57 119.79 225.57 120.91V130H220.44V107.8H225.57V115.51C226.09 114.77 226.8 114.18 227.7 113.74C228.6 113.3 229.61 113.08 230.73 113.08ZM256.435 121.36C256.435 121.84 256.405 122.34 256.345 122.86H244.735C244.815 123.9 245.145 124.7 245.725 125.26C246.325 125.8 247.055 126.07 247.915 126.07C249.195 126.07 250.085 125.53 250.585 124.45H256.045C255.765 125.55 255.255 126.54 254.515 127.42C253.795 128.3 252.885 128.99 251.785 129.49C250.685 129.99 249.455 130.24 248.095 130.24C246.455 130.24 244.995 129.89 243.715 129.19C242.435 128.49 241.435 127.49 240.715 126.19C239.995 124.89 239.635 123.37 239.635 121.63C239.635 119.89 239.985 118.37 240.685 117.07C241.405 115.77 242.405 114.77 243.685 114.07C244.965 113.37 246.435 113.02 248.095 113.02C249.715 113.02 251.155 113.36 252.415 114.04C253.675 114.72 254.655 115.69 255.355 116.95C256.075 118.21 256.435 119.68 256.435 121.36ZM251.185 120.01C251.185 119.13 250.885 118.43 250.285 117.91C249.685 117.39 248.935 117.13 248.035 117.13C247.175 117.13 246.445 117.38 245.845 117.88C245.265 118.38 244.905 119.09 244.765 120.01H251.185ZM264.271 116.05C264.871 115.13 265.621 114.41 266.521 113.89C267.421 113.35 268.421 113.08 269.521 113.08V118.51H268.111C266.831 118.51 265.871 118.79 265.231 119.35C264.591 119.89 264.271 120.85 264.271 122.23V130H259.141V113.26H264.271V116.05ZM287.753 121.36C287.753 121.84 287.723 122.34 287.663 122.86H276.053C276.133 123.9 276.463 124.7 277.043 125.26C277.643 125.8 278.373 126.07 279.233 126.07C280.513 126.07 281.403 125.53 281.903 124.45H287.363C287.083 125.55 286.573 126.54 285.833 127.42C285.113 128.3 284.203 128.99 283.103 129.49C282.003 129.99 280.773 130.24 279.413 130.24C277.773 130.24 276.313 129.89 275.033 129.19C273.753 128.49 272.753 127.49 272.033 126.19C271.313 124.89 270.953 123.37 270.953 121.63C270.953 119.89 271.303 118.37 272.003 117.07C272.723 115.77 273.723 114.77 275.003 114.07C276.283 113.37 277.753 113.02 279.413 113.02C281.033 113.02 282.473 113.36 283.733 114.04C284.993 114.72 285.973 115.69 286.673 116.95C287.393 118.21 287.753 119.68 287.753 121.36ZM282.503 120.01C282.503 119.13 282.203 118.43 281.603 117.91C281.003 117.39 280.253 117.13 279.353 117.13C278.493 117.13 277.763 117.38 277.163 117.88C276.583 118.38 276.223 119.09 276.083 120.01H282.503Z" fill="#1F41BB"/>
<path d="M118.167 176.04L114.267 190H110.967L108.347 180.06L105.607 190L102.327 190.02L98.567 176.04H101.567L104.027 186.88L106.867 176.04H109.987L112.667 186.82L115.147 176.04H118.167ZM130.295 184.22C130.295 184.62 130.269 184.98 130.215 185.3H122.115C122.182 186.1 122.462 186.727 122.955 187.18C123.449 187.633 124.055 187.86 124.775 187.86C125.815 187.86 126.555 187.413 126.995 186.52H130.015C129.695 187.587 129.082 188.467 128.175 189.16C127.269 189.84 126.155 190.18 124.835 190.18C123.769 190.18 122.809 189.947 121.955 189.48C121.115 189 120.455 188.327 119.975 187.46C119.509 186.593 119.275 185.593 119.275 184.46C119.275 183.313 119.509 182.307 119.975 181.44C120.442 180.573 121.095 179.907 121.935 179.44C122.775 178.973 123.742 178.74 124.835 178.74C125.889 178.74 126.829 178.967 127.655 179.42C128.495 179.873 129.142 180.52 129.595 181.36C130.062 182.187 130.295 183.14 130.295 184.22ZM127.395 183.42C127.382 182.7 127.122 182.127 126.615 181.7C126.109 181.26 125.489 181.04 124.755 181.04C124.062 181.04 123.475 181.253 122.995 181.68C122.529 182.093 122.242 182.673 122.135 183.42H127.395ZM135.139 175.2V190H132.339V175.2H135.139ZM137.185 184.46C137.185 183.313 137.419 182.313 137.885 181.46C138.352 180.593 138.999 179.927 139.825 179.46C140.652 178.98 141.599 178.74 142.665 178.74C144.039 178.74 145.172 179.087 146.065 179.78C146.972 180.46 147.579 181.42 147.885 182.66H144.865C144.705 182.18 144.432 181.807 144.045 181.54C143.672 181.26 143.205 181.12 142.645 181.12C141.845 181.12 141.212 181.413 140.745 182C140.279 182.573 140.045 183.393 140.045 184.46C140.045 185.513 140.279 186.333 140.745 186.92C141.212 187.493 141.845 187.78 142.645 187.78C143.779 187.78 144.519 187.273 144.865 186.26H147.885C147.579 187.46 146.972 188.413 146.065 189.12C145.159 189.827 144.025 190.18 142.665 190.18C141.599 190.18 140.652 189.947 139.825 189.48C138.999 189 138.352 188.333 137.885 187.48C137.419 186.613 137.185 185.607 137.185 184.46ZM154.857 190.18C153.79 190.18 152.83 189.947 151.977 189.48C151.123 189 150.45 188.327 149.957 187.46C149.477 186.593 149.237 185.593 149.237 184.46C149.237 183.327 149.483 182.327 149.977 181.46C150.483 180.593 151.17 179.927 152.037 179.46C152.903 178.98 153.87 178.74 154.937 178.74C156.003 178.74 156.97 178.98 157.837 179.46C158.703 179.927 159.383 180.593 159.877 181.46C160.383 182.327 160.637 183.327 160.637 184.46C160.637 185.593 160.377 186.593 159.857 187.46C159.35 188.327 158.657 189 157.777 189.48C156.91 189.947 155.937 190.18 154.857 190.18ZM154.857 187.74C155.363 187.74 155.837 187.62 156.277 187.38C156.73 187.127 157.09 186.753 157.357 186.26C157.623 185.767 157.757 185.167 157.757 184.46C157.757 183.407 157.477 182.6 156.917 182.04C156.37 181.467 155.697 181.18 154.897 181.18C154.097 181.18 153.423 181.467 152.877 182.04C152.343 182.6 152.077 183.407 152.077 184.46C152.077 185.513 152.337 186.327 152.857 186.9C153.39 187.46 154.057 187.74 154.857 187.74ZM176.451 178.76C177.811 178.76 178.904 179.18 179.731 180.02C180.571 180.847 180.991 182.007 180.991 183.5V190H178.191V183.88C178.191 183.013 177.971 182.353 177.531 181.9C177.091 181.433 176.491 181.2 175.731 181.2C174.971 181.2 174.364 181.433 173.911 181.9C173.471 182.353 173.251 183.013 173.251 183.88V190H170.451V183.88C170.451 183.013 170.231 182.353 169.791 181.9C169.351 181.433 168.751 181.2 167.991 181.2C167.217 181.2 166.604 181.433 166.151 181.9C165.711 182.353 165.491 183.013 165.491 183.88V190H162.691V178.92H165.491V180.26C165.851 179.793 166.311 179.427 166.871 179.16C167.444 178.893 168.071 178.76 168.751 178.76C169.617 178.76 170.391 178.947 171.071 179.32C171.751 179.68 172.277 180.2 172.651 180.88C173.011 180.24 173.531 179.727 174.211 179.34C174.904 178.953 175.651 178.76 176.451 178.76ZM193.948 184.22C193.948 184.62 193.921 184.98 193.868 185.3H185.768C185.834 186.1 186.114 186.727 186.608 187.18C187.101 187.633 187.708 187.86 188.428 187.86C189.468 187.86 190.208 187.413 190.648 186.52H193.668C193.348 187.587 192.734 188.467 191.828 189.16C190.921 189.84 189.808 190.18 188.488 190.18C187.421 190.18 186.461 189.947 185.608 189.48C184.768 189 184.108 188.327 183.628 187.46C183.161 186.593 182.928 185.593 182.928 184.46C182.928 183.313 183.161 182.307 183.628 181.44C184.094 180.573 184.748 179.907 185.588 179.44C186.428 178.973 187.394 178.74 188.488 178.74C189.541 178.74 190.481 178.967 191.308 179.42C192.148 179.873 192.794 180.52 193.248 181.36C193.714 182.187 193.948 183.14 193.948 184.22ZM191.048 183.42C191.034 182.7 190.774 182.127 190.268 181.7C189.761 181.26 189.141 181.04 188.408 181.04C187.714 181.04 187.128 181.253 186.648 181.68C186.181 182.093 185.894 182.673 185.788 183.42H191.048ZM203.557 180.54C203.917 180.007 204.41 179.573 205.037 179.24C205.677 178.907 206.404 178.74 207.217 178.74C208.164 178.74 209.017 178.973 209.777 179.44C210.55 179.907 211.157 180.573 211.597 181.44C212.05 182.293 212.277 183.287 212.277 184.42C212.277 185.553 212.05 186.56 211.597 187.44C211.157 188.307 210.55 188.98 209.777 189.46C209.017 189.94 208.164 190.18 207.217 190.18C206.39 190.18 205.664 190.02 205.037 189.7C204.424 189.367 203.93 188.94 203.557 188.42V190H200.757V175.2H203.557V180.54ZM209.417 184.42C209.417 183.753 209.277 183.18 208.997 182.7C208.73 182.207 208.37 181.833 207.917 181.58C207.477 181.327 206.997 181.2 206.477 181.2C205.97 181.2 205.49 181.333 205.037 181.6C204.597 181.853 204.237 182.227 203.957 182.72C203.69 183.213 203.557 183.793 203.557 184.46C203.557 185.127 203.69 185.707 203.957 186.2C204.237 186.693 204.597 187.073 205.037 187.34C205.49 187.593 205.97 187.72 206.477 187.72C206.997 187.72 207.477 187.587 207.917 187.32C208.37 187.053 208.73 186.673 208.997 186.18C209.277 185.687 209.417 185.1 209.417 184.42ZM213.592 184.42C213.592 183.3 213.812 182.307 214.252 181.44C214.705 180.573 215.312 179.907 216.072 179.44C216.845 178.973 217.705 178.74 218.652 178.74C219.478 178.74 220.198 178.907 220.812 179.24C221.438 179.573 221.938 179.993 222.312 180.5V178.92H225.132V190H222.312V188.38C221.952 188.9 221.452 189.333 220.812 189.68C220.185 190.013 219.458 190.18 218.632 190.18C217.698 190.18 216.845 189.94 216.072 189.46C215.312 188.98 214.705 188.307 214.252 187.44C213.812 186.56 213.592 185.553 213.592 184.42ZM222.312 184.46C222.312 183.78 222.178 183.2 221.912 182.72C221.645 182.227 221.285 181.853 220.832 181.6C220.378 181.333 219.892 181.2 219.372 181.2C218.852 181.2 218.372 181.327 217.932 181.58C217.492 181.833 217.132 182.207 216.852 182.7C216.585 183.18 216.452 183.753 216.452 184.42C216.452 185.087 216.585 185.673 216.852 186.18C217.132 186.673 217.492 187.053 217.932 187.32C218.385 187.587 218.865 187.72 219.372 187.72C219.892 187.72 220.378 187.593 220.832 187.34C221.285 187.073 221.645 186.7 221.912 186.22C222.178 185.727 222.312 185.14 222.312 184.46ZM227.146 184.46C227.146 183.313 227.38 182.313 227.846 181.46C228.313 180.593 228.96 179.927 229.786 179.46C230.613 178.98 231.56 178.74 232.626 178.74C234 178.74 235.133 179.087 236.026 179.78C236.933 180.46 237.54 181.42 237.846 182.66H234.826C234.666 182.18 234.393 181.807 234.006 181.54C233.633 181.26 233.166 181.12 232.606 181.12C231.806 181.12 231.173 181.413 230.706 182C230.24 182.573 230.006 183.393 230.006 184.46C230.006 185.513 230.24 186.333 230.706 186.92C231.173 187.493 231.806 187.78 232.606 187.78C233.74 187.78 234.48 187.273 234.826 186.26H237.846C237.54 187.46 236.933 188.413 236.026 189.12C235.12 189.827 233.986 190.18 232.626 190.18C231.56 190.18 230.613 189.947 229.786 189.48C228.96 189 228.313 188.333 227.846 187.48C227.38 186.613 227.146 185.607 227.146 184.46ZM246.458 190L242.698 185.28V190H239.898V175.2H242.698V183.62L246.418 178.92H250.058L245.178 184.48L250.098 190H246.458ZM266.943 178.92L260.083 195.24H257.103L259.503 189.72L255.063 178.92H258.203L261.063 186.66L263.963 178.92H266.943ZM273.372 190.18C272.306 190.18 271.346 189.947 270.492 189.48C269.639 189 268.966 188.327 268.472 187.46C267.992 186.593 267.752 185.593 267.752 184.46C267.752 183.327 267.999 182.327 268.492 181.46C268.999 180.593 269.686 179.927 270.552 179.46C271.419 178.98 272.386 178.74 273.452 178.74C274.519 178.74 275.486 178.98 276.352 179.46C277.219 179.927 277.899 180.593 278.392 181.46C278.899 182.327 279.152 183.327 279.152 184.46C279.152 185.593 278.892 186.593 278.372 187.46C277.866 188.327 277.172 189 276.292 189.48C275.426 189.947 274.452 190.18 273.372 190.18ZM273.372 187.74C273.879 187.74 274.352 187.62 274.792 187.38C275.246 187.127 275.606 186.753 275.872 186.26C276.139 185.767 276.272 185.167 276.272 184.46C276.272 183.407 275.992 182.6 275.432 182.04C274.886 181.467 274.212 181.18 273.412 181.18C272.612 181.18 271.939 181.467 271.392 182.04C270.859 182.6 270.592 183.407 270.592 184.46C270.592 185.513 270.852 186.327 271.372 186.9C271.906 187.46 272.572 187.74 273.372 187.74ZM291.666 178.92V190H288.846V188.6C288.486 189.08 288.013 189.46 287.426 189.74C286.853 190.007 286.226 190.14 285.546 190.14C284.68 190.14 283.913 189.96 283.246 189.6C282.58 189.227 282.053 188.687 281.666 187.98C281.293 187.26 281.106 186.407 281.106 185.42V178.92H283.906V185.02C283.906 185.9 284.126 186.58 284.566 187.06C285.006 187.527 285.606 187.76 286.366 187.76C287.14 187.76 287.746 187.527 288.186 187.06C288.626 186.58 288.846 185.9 288.846 185.02V178.92H291.666ZM294.989 176.04H297.929L295.769 181.08H293.849L294.989 176.04ZM304.557 187.42L307.357 178.92H310.337L306.237 190H302.837L298.757 178.92H301.757L304.557 187.42ZM322.209 184.22C322.209 184.62 322.183 184.98 322.129 185.3H314.029C314.096 186.1 314.376 186.727 314.869 187.18C315.363 187.633 315.969 187.86 316.689 187.86C317.729 187.86 318.469 187.413 318.909 186.52H321.929C321.609 187.587 320.996 188.467 320.089 189.16C319.183 189.84 318.069 190.18 316.749 190.18C315.683 190.18 314.723 189.947 313.869 189.48C313.029 189 312.369 188.327 311.889 187.46C311.423 186.593 311.189 185.593 311.189 184.46C311.189 183.313 311.423 182.307 311.889 181.44C312.356 180.573 313.009 179.907 313.849 179.44C314.689 178.973 315.656 178.74 316.749 178.74C317.803 178.74 318.743 178.967 319.569 179.42C320.409 179.873 321.056 180.52 321.509 181.36C321.976 182.187 322.209 183.14 322.209 184.22ZM319.309 183.42C319.296 182.7 319.036 182.127 318.529 181.7C318.023 181.26 317.403 181.04 316.669 181.04C315.976 181.04 315.389 181.253 314.909 181.68C314.443 182.093 314.156 182.673 314.049 183.42H319.309ZM145.92 210.54C146.28 210.007 146.774 209.573 147.4 209.24C148.04 208.907 148.767 208.74 149.58 208.74C150.527 208.74 151.38 208.973 152.14 209.44C152.914 209.907 153.52 210.573 153.96 211.44C154.414 212.293 154.64 213.287 154.64 214.42C154.64 215.553 154.414 216.56 153.96 217.44C153.52 218.307 152.914 218.98 152.14 219.46C151.38 219.94 150.527 220.18 149.58 220.18C148.754 220.18 148.027 220.02 147.4 219.7C146.787 219.367 146.294 218.94 145.92 218.42V220H143.12V205.2H145.92V210.54ZM151.78 214.42C151.78 213.753 151.64 213.18 151.36 212.7C151.094 212.207 150.734 211.833 150.28 211.58C149.84 211.327 149.36 211.2 148.84 211.2C148.334 211.2 147.854 211.333 147.4 211.6C146.96 211.853 146.6 212.227 146.32 212.72C146.054 213.213 145.92 213.793 145.92 214.46C145.92 215.127 146.054 215.707 146.32 216.2C146.6 216.693 146.96 217.073 147.4 217.34C147.854 217.593 148.334 217.72 148.84 217.72C149.36 217.72 149.84 217.587 150.28 217.32C150.734 217.053 151.094 216.673 151.36 216.18C151.64 215.687 151.78 215.1 151.78 214.42ZM166.975 214.22C166.975 214.62 166.948 214.98 166.895 215.3H158.795C158.862 216.1 159.142 216.727 159.635 217.18C160.128 217.633 160.735 217.86 161.455 217.86C162.495 217.86 163.235 217.413 163.675 216.52H166.695C166.375 217.587 165.762 218.467 164.855 219.16C163.948 219.84 162.835 220.18 161.515 220.18C160.448 220.18 159.488 219.947 158.635 219.48C157.795 219 157.135 218.327 156.655 217.46C156.188 216.593 155.955 215.593 155.955 214.46C155.955 213.313 156.188 212.307 156.655 211.44C157.122 210.573 157.775 209.907 158.615 209.44C159.455 208.973 160.422 208.74 161.515 208.74C162.568 208.74 163.508 208.967 164.335 209.42C165.175 209.873 165.822 210.52 166.275 211.36C166.742 212.187 166.975 213.14 166.975 214.22ZM164.075 213.42C164.062 212.7 163.802 212.127 163.295 211.7C162.788 211.26 162.168 211.04 161.435 211.04C160.742 211.04 160.155 211.253 159.675 211.68C159.208 212.093 158.922 212.673 158.815 213.42H164.075ZM179.319 214.22C179.319 214.62 179.292 214.98 179.239 215.3H171.139C171.205 216.1 171.485 216.727 171.979 217.18C172.472 217.633 173.079 217.86 173.799 217.86C174.839 217.86 175.579 217.413 176.019 216.52H179.039C178.719 217.587 178.105 218.467 177.199 219.16C176.292 219.84 175.179 220.18 173.859 220.18C172.792 220.18 171.832 219.947 170.979 219.48C170.139 219 169.479 218.327 168.999 217.46C168.532 216.593 168.299 215.593 168.299 214.46C168.299 213.313 168.532 212.307 168.999 211.44C169.465 210.573 170.119 209.907 170.959 209.44C171.799 208.973 172.765 208.74 173.859 208.74C174.912 208.74 175.852 208.967 176.679 209.42C177.519 209.873 178.165 210.52 178.619 211.36C179.085 212.187 179.319 213.14 179.319 214.22ZM176.419 213.42C176.405 212.7 176.145 212.127 175.639 211.7C175.132 211.26 174.512 211.04 173.779 211.04C173.085 211.04 172.499 211.253 172.019 211.68C171.552 212.093 171.265 212.673 171.159 213.42H176.419ZM187.502 208.76C188.822 208.76 189.889 209.18 190.702 210.02C191.516 210.847 191.922 212.007 191.922 213.5V220H189.122V213.88C189.122 213 188.902 212.327 188.462 211.86C188.022 211.38 187.422 211.14 186.662 211.14C185.889 211.14 185.276 211.38 184.822 211.86C184.382 212.327 184.162 213 184.162 213.88V220H181.362V208.92H184.162V210.3C184.536 209.82 185.009 209.447 185.582 209.18C186.169 208.9 186.809 208.76 187.502 208.76ZM213.111 208.76C214.471 208.76 215.564 209.18 216.391 210.02C217.231 210.847 217.651 212.007 217.651 213.5V220H214.851V213.88C214.851 213.013 214.631 212.353 214.191 211.9C213.751 211.433 213.151 211.2 212.391 211.2C211.631 211.2 211.024 211.433 210.571 211.9C210.131 212.353 209.911 213.013 209.911 213.88V220H207.111V213.88C207.111 213.013 206.891 212.353 206.451 211.9C206.011 211.433 205.411 211.2 204.651 211.2C203.877 211.2 203.264 211.433 202.811 211.9C202.371 212.353 202.151 213.013 202.151 213.88V220H199.351V208.92H202.151V210.26C202.511 209.793 202.971 209.427 203.531 209.16C204.104 208.893 204.731 208.76 205.411 208.76C206.277 208.76 207.051 208.947 207.731 209.32C208.411 209.68 208.937 210.2 209.311 210.88C209.671 210.24 210.191 209.727 210.871 209.34C211.564 208.953 212.311 208.76 213.111 208.76ZM221.728 207.6C221.234 207.6 220.821 207.447 220.488 207.14C220.168 206.82 220.008 206.427 220.008 205.96C220.008 205.493 220.168 205.107 220.488 204.8C220.821 204.48 221.234 204.32 221.728 204.32C222.221 204.32 222.628 204.48 222.948 204.8C223.281 205.107 223.448 205.493 223.448 205.96C223.448 206.427 223.281 206.82 222.948 207.14C222.628 207.447 222.221 207.6 221.728 207.6ZM223.108 208.92V220H220.308V208.92H223.108ZM230.114 220.18C229.207 220.18 228.394 220.02 227.674 219.7C226.954 219.367 226.381 218.92 225.954 218.36C225.541 217.8 225.314 217.18 225.274 216.5H228.094C228.147 216.927 228.354 217.28 228.714 217.56C229.087 217.84 229.547 217.98 230.094 217.98C230.627 217.98 231.041 217.873 231.334 217.66C231.641 217.447 231.794 217.173 231.794 216.84C231.794 216.48 231.607 216.213 231.234 216.04C230.874 215.853 230.294 215.653 229.494 215.44C228.667 215.24 227.987 215.033 227.454 214.82C226.934 214.607 226.481 214.28 226.094 213.84C225.721 213.4 225.534 212.807 225.534 212.06C225.534 211.447 225.707 210.887 226.054 210.38C226.414 209.873 226.921 209.473 227.574 209.18C228.241 208.887 229.021 208.74 229.914 208.74C231.234 208.74 232.287 209.073 233.074 209.74C233.861 210.393 234.294 211.28 234.374 212.4H231.694C231.654 211.96 231.467 211.613 231.134 211.36C230.814 211.093 230.381 210.96 229.834 210.96C229.327 210.96 228.934 211.053 228.654 211.24C228.387 211.427 228.254 211.687 228.254 212.02C228.254 212.393 228.441 212.68 228.814 212.88C229.187 213.067 229.767 213.26 230.554 213.46C231.354 213.66 232.014 213.867 232.534 214.08C233.054 214.293 233.501 214.627 233.874 215.08C234.261 215.52 234.461 216.107 234.474 216.84C234.474 217.48 234.294 218.053 233.934 218.56C233.587 219.067 233.081 219.467 232.414 219.76C231.761 220.04 230.994 220.18 230.114 220.18ZM241.013 220.18C240.106 220.18 239.293 220.02 238.573 219.7C237.853 219.367 237.279 218.92 236.853 218.36C236.439 217.8 236.213 217.18 236.173 216.5H238.993C239.046 216.927 239.253 217.28 239.613 217.56C239.986 217.84 240.446 217.98 240.993 217.98C241.526 217.98 241.939 217.873 242.233 217.66C242.539 217.447 242.693 217.173 242.693 216.84C242.693 216.48 242.506 216.213 242.133 216.04C241.773 215.853 241.193 215.653 240.393 215.44C239.566 215.24 238.886 215.033 238.353 214.82C237.833 214.607 237.379 214.28 236.993 213.84C236.619 213.4 236.433 212.807 236.433 212.06C236.433 211.447 236.606 210.887 236.953 210.38C237.313 209.873 237.819 209.473 238.473 209.18C239.139 208.887 239.919 208.74 240.813 208.74C242.133 208.74 243.186 209.073 243.973 209.74C244.759 210.393 245.193 211.28 245.273 212.4H242.593C242.553 211.96 242.366 211.613 242.033 211.36C241.713 211.093 241.279 210.96 240.733 210.96C240.226 210.96 239.833 211.053 239.553 211.24C239.286 211.427 239.153 211.687 239.153 212.02C239.153 212.393 239.339 212.68 239.713 212.88C240.086 213.067 240.666 213.26 241.453 213.46C242.253 213.66 242.913 213.867 243.433 214.08C243.953 214.293 244.399 214.627 244.773 215.08C245.159 215.52 245.359 216.107 245.373 216.84C245.373 217.48 245.193 218.053 244.833 218.56C244.486 219.067 243.979 219.467 243.313 219.76C242.659 220.04 241.893 220.18 241.013 220.18ZM257.971 214.22C257.971 214.62 257.944 214.98 257.891 215.3H249.791C249.858 216.1 250.138 216.727 250.631 217.18C251.124 217.633 251.731 217.86 252.451 217.86C253.491 217.86 254.231 217.413 254.671 216.52H257.691C257.371 217.587 256.758 218.467 255.851 219.16C254.944 219.84 253.831 220.18 252.511 220.18C251.444 220.18 250.484 219.947 249.631 219.48C248.791 219 248.131 218.327 247.651 217.46C247.184 216.593 246.951 215.593 246.951 214.46C246.951 213.313 247.184 212.307 247.651 211.44C248.118 210.573 248.771 209.907 249.611 209.44C250.451 208.973 251.418 208.74 252.511 208.74C253.564 208.74 254.504 208.967 255.331 209.42C256.171 209.873 256.818 210.52 257.271 211.36C257.738 212.187 257.971 213.14 257.971 214.22ZM255.071 213.42C255.058 212.7 254.798 212.127 254.291 211.7C253.784 211.26 253.164 211.04 252.431 211.04C251.738 211.04 251.151 211.253 250.671 211.68C250.204 212.093 249.918 212.673 249.811 213.42H255.071ZM259.295 214.42C259.295 213.3 259.515 212.307 259.955 211.44C260.408 210.573 261.021 209.907 261.795 209.44C262.568 208.973 263.428 208.74 264.375 208.74C265.095 208.74 265.781 208.9 266.435 209.22C267.088 209.527 267.608 209.94 267.995 210.46V205.2H270.835V220H267.995V218.36C267.648 218.907 267.161 219.347 266.535 219.68C265.908 220.013 265.181 220.18 264.355 220.18C263.421 220.18 262.568 219.94 261.795 219.46C261.021 218.98 260.408 218.307 259.955 217.44C259.515 216.56 259.295 215.553 259.295 214.42ZM268.015 214.46C268.015 213.78 267.881 213.2 267.615 212.72C267.348 212.227 266.988 211.853 266.535 211.6C266.081 211.333 265.595 211.2 265.075 211.2C264.555 211.2 264.075 211.327 263.635 211.58C263.195 211.833 262.835 212.207 262.555 212.7C262.288 213.18 262.155 213.753 262.155 214.42C262.155 215.087 262.288 215.673 262.555 216.18C262.835 216.673 263.195 217.053 263.635 217.32C264.088 217.587 264.568 217.72 265.075 217.72C265.595 217.72 266.081 217.593 266.535 217.34C266.988 217.073 267.348 216.7 267.615 216.22C267.881 215.727 268.015 215.14 268.015 214.46ZM277.189 205.8L276.869 215.46H274.509L274.169 205.8H277.189ZM275.749 220.14C275.243 220.14 274.823 219.987 274.489 219.68C274.169 219.36 274.009 218.967 274.009 218.5C274.009 218.033 274.169 217.647 274.489 217.34C274.823 217.02 275.243 216.86 275.749 216.86C276.243 216.86 276.649 217.02 276.969 217.34C277.289 217.647 277.449 218.033 277.449 218.5C277.449 218.967 277.289 219.36 276.969 219.68C276.649 219.987 276.243 220.14 275.749 220.14Z" fill="black"/>
<rect x="32" y="303" width="355" height="62" rx="9" fill="#F1F4FF"/>
<rect x="32" y="303" width="355" height="62" rx="9" stroke="#1F41BB" stroke-width="2"/>
<path d="M54.3756 330.288V333.664H58.2156V335.072H54.3756V338.576H58.6956V340H52.5516V328.864H58.6956V330.288H54.3756ZM71.7742 331.04C72.4355 331.04 73.0275 331.184 73.5502 331.472C74.0729 331.76 74.4835 332.187 74.7822 332.752C75.0915 333.317 75.2462 334 75.2462 334.8V340H73.4222V335.072C73.4222 334.283 73.2249 333.68 72.8302 333.264C72.4355 332.837 71.8969 332.624 71.2142 332.624C70.5315 332.624 69.9929 332.837 69.5982 333.264C69.2035 333.68 69.0062 334.283 69.0062 335.072V340H67.1982V335.072C67.1982 334.283 67.0009 333.68 66.6062 333.264C66.2115 332.837 65.6729 332.624 64.9902 332.624C64.3075 332.624 63.7635 332.837 63.3582 333.264C62.9635 333.68 62.7662 334.283 62.7662 335.072V340H60.9422V331.184H62.7662V332.576C63.0542 332.075 63.4382 331.696 63.9182 331.44C64.4089 331.173 64.9635 331.04 65.5822 331.04C66.2649 331.04 66.8729 331.2 67.4062 331.52C67.9395 331.84 68.3449 332.304 68.6222 332.912C68.9315 332.325 69.3582 331.867 69.9022 331.536C70.4569 331.205 71.0809 331.04 71.7742 331.04ZM81.1192 331.04C81.8125 331.04 82.4205 331.2 82.9432 331.52C83.4765 331.829 83.8872 332.24 84.1752 332.752V331.184H86.0152V340H84.1752V338.352C83.8765 338.896 83.4659 339.333 82.9432 339.664C82.4205 339.984 81.8125 340.144 81.1192 340.144C80.3512 340.144 79.6472 339.952 79.0072 339.568C78.3779 339.173 77.8765 338.629 77.5032 337.936C77.1405 337.232 76.9592 336.437 76.9592 335.552C76.9592 334.667 77.1405 333.883 77.5032 333.2C77.8765 332.517 78.3779 331.989 79.0072 331.616C79.6472 331.232 80.3512 331.04 81.1192 331.04ZM81.5032 332.624C81.0339 332.624 80.5965 332.741 80.1912 332.976C79.7859 333.2 79.4552 333.536 79.1992 333.984C78.9539 334.421 78.8312 334.944 78.8312 335.552C78.8312 336.16 78.9539 336.693 79.1992 337.152C79.4552 337.611 79.7859 337.963 80.1912 338.208C80.6072 338.443 81.0445 338.56 81.5032 338.56C81.9725 338.56 82.4099 338.443 82.8152 338.208C83.2205 337.973 83.5459 337.632 83.7912 337.184C84.0472 336.725 84.1752 336.192 84.1752 335.584C84.1752 334.976 84.0472 334.448 83.7912 334C83.5459 333.552 83.2205 333.211 82.8152 332.976C82.4099 332.741 81.9725 332.624 81.5032 332.624ZM88.1709 328.848C88.1709 328.517 88.2829 328.24 88.5069 328.016C88.7309 327.792 89.0083 327.68 89.3389 327.68C89.6589 327.68 89.9309 327.792 90.1549 328.016C90.3789 328.24 90.4909 328.517 90.4909 328.848C90.4909 329.179 90.3789 329.456 90.1549 329.68C89.9309 329.904 89.6589 330.016 89.3389 330.016C89.0083 330.016 88.7309 329.904 88.5069 329.68C88.2829 329.456 88.1709 329.179 88.1709 328.848ZM90.2349 331.184V340H88.4109V331.184H90.2349ZM94.4537 328.16V340H92.6297V328.16H94.4537Z" fill="#626262"/>
<rect x="31" y="395" width="357" height="64" rx="10" fill="#F1F4FF"/>
<path d="M54.1021 428.488V433H52.2781V421.88H56.1181C56.9715 421.88 57.6915 422.029 58.2781 422.328C58.8755 422.616 59.3181 423.011 59.6061 423.512C59.9048 424.013 60.0541 424.573 60.0541 425.192C60.0541 425.757 59.9208 426.291 59.6541 426.792C59.3875 427.293 58.9608 427.704 58.3741 428.024C57.7875 428.333 57.0355 428.488 56.1181 428.488H54.1021ZM56.1181 427.064C56.8115 427.064 57.3288 426.899 57.6701 426.568C58.0115 426.237 58.1821 425.779 58.1821 425.192C58.1821 424.595 58.0115 424.131 57.6701 423.8C57.3288 423.469 56.8115 423.304 56.1181 423.304H54.1021V427.064H56.1181ZM65.3458 424.04C66.0391 424.04 66.6471 424.2 67.1698 424.52C67.7031 424.829 68.1138 425.24 68.4018 425.752V424.184H70.2418V433H68.4018V431.352C68.1031 431.896 67.6924 432.333 67.1698 432.664C66.6471 432.984 66.0391 433.144 65.3458 433.144C64.5778 433.144 63.8738 432.952 63.2338 432.568C62.6044 432.173 62.1031 431.629 61.7298 430.936C61.3671 430.232 61.1858 429.437 61.1858 428.552C61.1858 427.667 61.3671 426.883 61.7298 426.2C62.1031 425.517 62.6044 424.989 63.2338 424.616C63.8738 424.232 64.5778 424.04 65.3458 424.04ZM65.7298 425.624C65.2604 425.624 64.8231 425.741 64.4178 425.976C64.0124 426.2 63.6818 426.536 63.4258 426.984C63.1804 427.421 63.0578 427.944 63.0578 428.552C63.0578 429.16 63.1804 429.693 63.4258 430.152C63.6818 430.611 64.0124 430.963 64.4178 431.208C64.8338 431.443 65.2711 431.56 65.7298 431.56C66.1991 431.56 66.6364 431.443 67.0418 431.208C67.4471 430.973 67.7724 430.632 68.0178 430.184C68.2738 429.725 68.4018 429.192 68.4018 428.584C68.4018 427.976 68.2738 427.448 68.0178 427C67.7724 426.552 67.4471 426.211 67.0418 425.976C66.6364 425.741 66.1991 425.624 65.7298 425.624ZM75.7255 424.04C76.7068 424.04 77.4962 424.296 78.0935 424.808C78.7015 425.309 79.0268 425.997 79.0695 426.872H77.1975C77.1655 426.435 77.0108 426.093 76.7335 425.848C76.4668 425.603 76.0882 425.48 75.5975 425.48C75.1068 425.48 74.7228 425.592 74.4455 425.816C74.1682 426.029 74.0295 426.307 74.0295 426.648C74.0295 426.925 74.1202 427.149 74.3015 427.32C74.4828 427.491 74.7122 427.624 74.9895 427.72C75.2775 427.805 75.6615 427.901 76.1415 428.008C76.7922 428.157 77.3148 428.307 77.7095 428.456C78.1148 428.605 78.4615 428.851 78.7495 429.192C79.0375 429.523 79.1815 429.976 79.1815 430.552C79.1815 431.053 79.0322 431.501 78.7335 431.896C78.4455 432.291 78.0402 432.6 77.5175 432.824C76.9948 433.037 76.4028 433.144 75.7415 433.144C74.7175 433.144 73.8908 432.899 73.2615 432.408C72.6322 431.917 72.2855 431.219 72.2215 430.312H74.1095C74.1415 430.749 74.3015 431.091 74.5895 431.336C74.8775 431.581 75.2615 431.704 75.7415 431.704C76.2535 431.704 76.6535 431.597 76.9415 431.384C77.2402 431.16 77.3895 430.872 77.3895 430.52C77.3895 430.232 77.2935 430.003 77.1015 429.832C76.9202 429.661 76.6855 429.533 76.3975 429.448C76.1095 429.352 75.7202 429.251 75.2295 429.144C74.5895 428.995 74.0722 428.851 73.6775 428.712C73.2828 428.563 72.9415 428.328 72.6535 428.008C72.3762 427.688 72.2375 427.256 72.2375 426.712C72.2375 426.221 72.3762 425.773 72.6535 425.368C72.9308 424.963 73.3308 424.643 73.8535 424.408C74.3868 424.163 75.0108 424.04 75.7255 424.04ZM84.2724 424.04C85.2537 424.04 86.043 424.296 86.6404 424.808C87.2484 425.309 87.5737 425.997 87.6164 426.872H85.7444C85.7124 426.435 85.5577 426.093 85.2804 425.848C85.0137 425.603 84.635 425.48 84.1444 425.48C83.6537 425.48 83.2697 425.592 82.9924 425.816C82.715 426.029 82.5764 426.307 82.5764 426.648C82.5764 426.925 82.667 427.149 82.8484 427.32C83.0297 427.491 83.259 427.624 83.5364 427.72C83.8244 427.805 84.2084 427.901 84.6884 428.008C85.339 428.157 85.8617 428.307 86.2564 428.456C86.6617 428.605 87.0084 428.851 87.2964 429.192C87.5844 429.523 87.7284 429.976 87.7284 430.552C87.7284 431.053 87.579 431.501 87.2804 431.896C86.9924 432.291 86.587 432.6 86.0644 432.824C85.5417 433.037 84.9497 433.144 84.2884 433.144C83.2644 433.144 82.4377 432.899 81.8084 432.408C81.179 431.917 80.8324 431.219 80.7684 430.312H82.6564C82.6884 430.749 82.8484 431.091 83.1364 431.336C83.4244 431.581 83.8084 431.704 84.2884 431.704C84.8004 431.704 85.2004 431.597 85.4884 431.384C85.787 431.16 85.9364 430.872 85.9364 430.52C85.9364 430.232 85.8404 430.003 85.6484 429.832C85.467 429.661 85.2324 429.533 84.9444 429.448C84.6564 429.352 84.267 429.251 83.7764 429.144C83.1364 428.995 82.619 428.851 82.2244 428.712C81.8297 428.563 81.4884 428.328 81.2004 428.008C80.923 427.688 80.7844 427.256 80.7844 426.712C80.7844 426.221 80.923 425.773 81.2004 425.368C81.4777 424.963 81.8777 424.643 82.4004 424.408C82.9337 424.163 83.5577 424.04 84.2724 424.04ZM101.571 424.184L98.8353 433H96.9153L95.1393 426.488L93.3633 433H91.4433L88.6913 424.184H90.5473L92.3873 431.272L94.2593 424.184H96.1633L97.9553 431.24L99.7793 424.184H101.571ZM106.838 424.04C107.681 424.04 108.444 424.227 109.126 424.6C109.809 424.973 110.348 425.507 110.742 426.2C111.137 426.893 111.334 427.688 111.334 428.584C111.334 429.48 111.132 430.275 110.726 430.968C110.321 431.661 109.766 432.2 109.062 432.584C108.369 432.957 107.601 433.144 106.758 433.144C105.926 433.144 105.174 432.957 104.502 432.584C103.83 432.2 103.302 431.667 102.918 430.984C102.534 430.291 102.342 429.491 102.342 428.584C102.342 427.688 102.54 426.893 102.934 426.2C103.329 425.507 103.868 424.973 104.55 424.6C105.233 424.227 105.996 424.04 106.838 424.04ZM106.806 425.576C106.337 425.576 105.905 425.693 105.51 425.928C105.116 426.152 104.796 426.493 104.55 426.952C104.316 427.4 104.198 427.944 104.198 428.584C104.198 429.224 104.31 429.773 104.534 430.232C104.769 430.691 105.078 431.037 105.462 431.272C105.857 431.496 106.289 431.608 106.758 431.608C107.228 431.608 107.665 431.491 108.07 431.256C108.486 431.021 108.822 430.68 109.078 430.232C109.334 429.773 109.462 429.224 109.462 428.584C109.462 427.944 109.34 427.4 109.094 426.952C108.849 426.493 108.524 426.152 108.118 425.928C107.713 425.693 107.276 425.576 106.806 425.576ZM114.962 425.72C115.228 425.187 115.58 424.776 116.018 424.488C116.466 424.189 116.994 424.04 117.602 424.04V425.928H117.138C116.423 425.928 115.879 426.109 115.506 426.472C115.143 426.835 114.962 427.464 114.962 428.36V433H113.138V424.184H114.962V425.72ZM122.83 424.04C123.523 424.04 124.131 424.2 124.654 424.52C125.187 424.829 125.598 425.24 125.886 425.752V421.16H127.726V433H125.886V431.352C125.587 431.896 125.177 432.333 124.654 432.664C124.131 432.984 123.523 433.144 122.83 433.144C122.062 433.144 121.358 432.952 120.718 432.568C120.089 432.173 119.587 431.629 119.214 430.936C118.851 430.232 118.67 429.437 118.67 428.552C118.67 427.667 118.851 426.883 119.214 426.2C119.587 425.517 120.089 424.989 120.718 424.616C121.358 424.232 122.062 424.04 122.83 424.04ZM123.214 425.624C122.745 425.624 122.307 425.741 121.902 425.976C121.497 426.2 121.166 426.536 120.91 426.984C120.665 427.421 120.542 427.944 120.542 428.552C120.542 429.16 120.665 429.693 120.91 430.152C121.166 430.611 121.497 430.963 121.902 431.208C122.318 431.443 122.755 431.56 123.214 431.56C123.683 431.56 124.121 431.443 124.526 431.208C124.931 430.973 125.257 430.632 125.502 430.184C125.758 429.725 125.886 429.192 125.886 428.584C125.886 427.976 125.758 427.448 125.502 427C125.257 426.552 124.931 426.211 124.526 425.976C124.121 425.741 123.683 425.624 123.214 425.624Z" fill="#626262"/>
<path d="M232.248 494.228V495.81H228.174V498.316H231.296V499.87H228.174V504H226.214V494.228H232.248ZM237.082 504.126C236.335 504.126 235.663 503.963 235.066 503.636C234.469 503.3 233.997 502.829 233.652 502.222C233.316 501.615 233.148 500.915 233.148 500.122C233.148 499.329 233.321 498.629 233.666 498.022C234.021 497.415 234.501 496.949 235.108 496.622C235.715 496.286 236.391 496.118 237.138 496.118C237.885 496.118 238.561 496.286 239.168 496.622C239.775 496.949 240.251 497.415 240.596 498.022C240.951 498.629 241.128 499.329 241.128 500.122C241.128 500.915 240.946 501.615 240.582 502.222C240.227 502.829 239.742 503.3 239.126 503.636C238.519 503.963 237.838 504.126 237.082 504.126ZM237.082 502.418C237.437 502.418 237.768 502.334 238.076 502.166C238.393 501.989 238.645 501.727 238.832 501.382C239.019 501.037 239.112 500.617 239.112 500.122C239.112 499.385 238.916 498.82 238.524 498.428C238.141 498.027 237.67 497.826 237.11 497.826C236.55 497.826 236.079 498.027 235.696 498.428C235.323 498.82 235.136 499.385 235.136 500.122C235.136 500.859 235.318 501.429 235.682 501.83C236.055 502.222 236.522 502.418 237.082 502.418ZM244.526 497.448C244.778 497.037 245.104 496.715 245.506 496.482C245.916 496.249 246.383 496.132 246.906 496.132V498.19H246.388C245.772 498.19 245.305 498.335 244.988 498.624C244.68 498.913 244.526 499.417 244.526 500.136V504H242.566V496.244H244.526V497.448ZM251.264 496.118C251.842 496.118 252.351 496.235 252.79 496.468C253.228 496.692 253.574 496.986 253.826 497.35V496.244H255.8V504.056C255.8 504.775 255.655 505.414 255.366 505.974C255.076 506.543 254.642 506.991 254.064 507.318C253.485 507.654 252.785 507.822 251.964 507.822C250.862 507.822 249.957 507.565 249.248 507.052C248.548 506.539 248.151 505.839 248.058 504.952H250.004C250.106 505.307 250.326 505.587 250.662 505.792C251.007 506.007 251.422 506.114 251.908 506.114C252.477 506.114 252.939 505.941 253.294 505.596C253.648 505.26 253.826 504.747 253.826 504.056V502.852C253.574 503.216 253.224 503.519 252.776 503.762C252.337 504.005 251.833 504.126 251.264 504.126C250.61 504.126 250.013 503.958 249.472 503.622C248.93 503.286 248.501 502.815 248.184 502.208C247.876 501.592 247.722 500.887 247.722 500.094C247.722 499.31 247.876 498.615 248.184 498.008C248.501 497.401 248.926 496.935 249.458 496.608C249.999 496.281 250.601 496.118 251.264 496.118ZM253.826 500.122C253.826 499.646 253.732 499.24 253.546 498.904C253.359 498.559 253.107 498.297 252.79 498.12C252.472 497.933 252.132 497.84 251.768 497.84C251.404 497.84 251.068 497.929 250.76 498.106C250.452 498.283 250.2 498.545 250.004 498.89C249.817 499.226 249.724 499.627 249.724 500.094C249.724 500.561 249.817 500.971 250.004 501.326C250.2 501.671 250.452 501.937 250.76 502.124C251.077 502.311 251.413 502.404 251.768 502.404C252.132 502.404 252.472 502.315 252.79 502.138C253.107 501.951 253.359 501.69 253.546 501.354C253.732 501.009 253.826 500.598 253.826 500.122ZM261.158 504.126C260.411 504.126 259.739 503.963 259.142 503.636C258.545 503.3 258.073 502.829 257.728 502.222C257.392 501.615 257.224 500.915 257.224 500.122C257.224 499.329 257.397 498.629 257.742 498.022C258.097 497.415 258.577 496.949 259.184 496.622C259.791 496.286 260.467 496.118 261.214 496.118C261.961 496.118 262.637 496.286 263.244 496.622C263.851 496.949 264.327 497.415 264.672 498.022C265.027 498.629 265.204 499.329 265.204 500.122C265.204 500.915 265.022 501.615 264.658 502.222C264.303 502.829 263.818 503.3 263.202 503.636C262.595 503.963 261.914 504.126 261.158 504.126ZM261.158 502.418C261.513 502.418 261.844 502.334 262.152 502.166C262.469 501.989 262.721 501.727 262.908 501.382C263.095 501.037 263.188 500.617 263.188 500.122C263.188 499.385 262.992 498.82 262.6 498.428C262.217 498.027 261.746 497.826 261.186 497.826C260.626 497.826 260.155 498.027 259.772 498.428C259.399 498.82 259.212 499.385 259.212 500.122C259.212 500.859 259.394 501.429 259.758 501.83C260.131 502.222 260.598 502.418 261.158 502.418ZM268.924 497.854V501.606C268.924 501.867 268.984 502.059 269.106 502.18C269.236 502.292 269.451 502.348 269.75 502.348H270.66V504H269.428C267.776 504 266.95 503.197 266.95 501.592V497.854H266.026V496.244H266.95V494.326H268.924V496.244H270.66V497.854H268.924ZM282.825 496.244L278.023 507.668H275.937L277.617 503.804L274.509 496.244H276.707L278.709 501.662L280.739 496.244H282.825ZM287.326 504.126C286.579 504.126 285.907 503.963 285.31 503.636C284.713 503.3 284.241 502.829 283.896 502.222C283.56 501.615 283.392 500.915 283.392 500.122C283.392 499.329 283.565 498.629 283.91 498.022C284.265 497.415 284.745 496.949 285.352 496.622C285.959 496.286 286.635 496.118 287.382 496.118C288.129 496.118 288.805 496.286 289.412 496.622C290.019 496.949 290.495 497.415 290.84 498.022C291.195 498.629 291.372 499.329 291.372 500.122C291.372 500.915 291.19 501.615 290.826 502.222C290.471 502.829 289.986 503.3 289.37 503.636C288.763 503.963 288.082 504.126 287.326 504.126ZM287.326 502.418C287.681 502.418 288.012 502.334 288.32 502.166C288.637 501.989 288.889 501.727 289.076 501.382C289.263 501.037 289.356 500.617 289.356 500.122C289.356 499.385 289.16 498.82 288.768 498.428C288.385 498.027 287.914 497.826 287.354 497.826C286.794 497.826 286.323 498.027 285.94 498.428C285.567 498.82 285.38 499.385 285.38 500.122C285.38 500.859 285.562 501.429 285.926 501.83C286.299 502.222 286.766 502.418 287.326 502.418ZM300.132 496.244V504H298.158V503.02C297.906 503.356 297.574 503.622 297.164 503.818C296.762 504.005 296.324 504.098 295.848 504.098C295.241 504.098 294.704 503.972 294.238 503.72C293.771 503.459 293.402 503.081 293.132 502.586C292.87 502.082 292.74 501.485 292.74 500.794V496.244H294.7V500.514C294.7 501.13 294.854 501.606 295.162 501.942C295.47 502.269 295.89 502.432 296.422 502.432C296.963 502.432 297.388 502.269 297.696 501.942C298.004 501.606 298.158 501.13 298.158 500.514V496.244H300.132ZM304.026 497.448C304.278 497.037 304.604 496.715 305.006 496.482C305.416 496.249 305.883 496.132 306.406 496.132V498.19H305.888C305.272 498.19 304.805 498.335 304.488 498.624C304.18 498.913 304.026 499.417 304.026 500.136V504H302.066V496.244H304.026V497.448ZM313.022 497.364C313.274 497.009 313.619 496.715 314.058 496.482C314.506 496.239 315.014 496.118 315.584 496.118C316.246 496.118 316.844 496.281 317.376 496.608C317.917 496.935 318.342 497.401 318.65 498.008C318.967 498.605 319.126 499.301 319.126 500.094C319.126 500.887 318.967 501.592 318.65 502.208C318.342 502.815 317.917 503.286 317.376 503.622C316.844 503.958 316.246 504.126 315.584 504.126C315.014 504.126 314.51 504.009 314.072 503.776C313.642 503.543 313.292 503.249 313.022 502.894V507.696H311.062V496.244H313.022V497.364ZM317.124 500.094C317.124 499.627 317.026 499.226 316.83 498.89C316.643 498.545 316.391 498.283 316.074 498.106C315.766 497.929 315.43 497.84 315.066 497.84C314.711 497.84 314.375 497.933 314.058 498.12C313.75 498.297 313.498 498.559 313.302 498.904C313.115 499.249 313.022 499.655 313.022 500.122C313.022 500.589 313.115 500.995 313.302 501.34C313.498 501.685 313.75 501.951 314.058 502.138C314.375 502.315 314.711 502.404 315.066 502.404C315.43 502.404 315.766 502.311 316.074 502.124C316.391 501.937 316.643 501.671 316.83 501.326C317.026 500.981 317.124 500.57 317.124 500.094ZM320.046 500.094C320.046 499.31 320.2 498.615 320.508 498.008C320.825 497.401 321.25 496.935 321.782 496.608C322.323 496.281 322.925 496.118 323.588 496.118C324.167 496.118 324.671 496.235 325.1 496.468C325.539 496.701 325.889 496.995 326.15 497.35V496.244H328.124V504H326.15V502.866C325.898 503.23 325.548 503.533 325.1 503.776C324.661 504.009 324.153 504.126 323.574 504.126C322.921 504.126 322.323 503.958 321.782 503.622C321.25 503.286 320.825 502.815 320.508 502.208C320.2 501.592 320.046 500.887 320.046 500.094ZM326.15 500.122C326.15 499.646 326.057 499.24 325.87 498.904C325.683 498.559 325.431 498.297 325.114 498.12C324.797 497.933 324.456 497.84 324.092 497.84C323.728 497.84 323.392 497.929 323.084 498.106C322.776 498.283 322.524 498.545 322.328 498.89C322.141 499.226 322.048 499.627 322.048 500.094C322.048 500.561 322.141 500.971 322.328 501.326C322.524 501.671 322.776 501.937 323.084 502.124C323.401 502.311 323.737 502.404 324.092 502.404C324.456 502.404 324.797 502.315 325.114 502.138C325.431 501.951 325.683 501.69 325.87 501.354C326.057 501.009 326.15 500.598 326.15 500.122ZM333.006 504.126C332.372 504.126 331.802 504.014 331.298 503.79C330.794 503.557 330.393 503.244 330.094 502.852C329.805 502.46 329.646 502.026 329.618 501.55H331.592C331.63 501.849 331.774 502.096 332.026 502.292C332.288 502.488 332.61 502.586 332.992 502.586C333.366 502.586 333.655 502.511 333.86 502.362C334.075 502.213 334.182 502.021 334.182 501.788C334.182 501.536 334.052 501.349 333.79 501.228C333.538 501.097 333.132 500.957 332.572 500.808C331.994 500.668 331.518 500.523 331.144 500.374C330.78 500.225 330.463 499.996 330.192 499.688C329.931 499.38 329.8 498.965 329.8 498.442C329.8 498.013 329.922 497.621 330.164 497.266C330.416 496.911 330.771 496.631 331.228 496.426C331.695 496.221 332.241 496.118 332.866 496.118C333.79 496.118 334.528 496.351 335.078 496.818C335.629 497.275 335.932 497.896 335.988 498.68H334.112C334.084 498.372 333.954 498.129 333.72 497.952C333.496 497.765 333.193 497.672 332.81 497.672C332.456 497.672 332.18 497.737 331.984 497.868C331.798 497.999 331.704 498.181 331.704 498.414C331.704 498.675 331.835 498.876 332.096 499.016C332.358 499.147 332.764 499.282 333.314 499.422C333.874 499.562 334.336 499.707 334.7 499.856C335.064 500.005 335.377 500.239 335.638 500.556C335.909 500.864 336.049 501.275 336.058 501.788C336.058 502.236 335.932 502.637 335.68 502.992C335.438 503.347 335.083 503.627 334.616 503.832C334.159 504.028 333.622 504.126 333.006 504.126ZM340.635 504.126C340.001 504.126 339.431 504.014 338.927 503.79C338.423 503.557 338.022 503.244 337.723 502.852C337.434 502.46 337.275 502.026 337.247 501.55H339.221C339.259 501.849 339.403 502.096 339.655 502.292C339.917 502.488 340.239 502.586 340.621 502.586C340.995 502.586 341.284 502.511 341.489 502.362C341.704 502.213 341.811 502.021 341.811 501.788C341.811 501.536 341.681 501.349 341.419 501.228C341.167 501.097 340.761 500.957 340.201 500.808C339.623 500.668 339.147 500.523 338.773 500.374C338.409 500.225 338.092 499.996 337.821 499.688C337.56 499.38 337.429 498.965 337.429 498.442C337.429 498.013 337.551 497.621 337.793 497.266C338.045 496.911 338.4 496.631 338.857 496.426C339.324 496.221 339.87 496.118 340.495 496.118C341.419 496.118 342.157 496.351 342.707 496.818C343.258 497.275 343.561 497.896 343.617 498.68H341.741C341.713 498.372 341.583 498.129 341.349 497.952C341.125 497.765 340.822 497.672 340.439 497.672C340.085 497.672 339.809 497.737 339.613 497.868C339.427 497.999 339.333 498.181 339.333 498.414C339.333 498.675 339.464 498.876 339.725 499.016C339.987 499.147 340.393 499.282 340.943 499.422C341.503 499.562 341.965 499.707 342.329 499.856C342.693 500.005 343.006 500.239 343.267 500.556C343.538 500.864 343.678 501.275 343.687 501.788C343.687 502.236 343.561 502.637 343.309 502.992C343.067 503.347 342.712 503.627 342.245 503.832C341.788 504.028 341.251 504.126 340.635 504.126ZM356.048 496.244L353.78 504H351.666L350.252 498.582L348.838 504H346.71L344.428 496.244H346.416L347.788 502.152L349.272 496.244H351.344L352.8 502.138L354.172 496.244H356.048ZM360.553 504.126C359.806 504.126 359.134 503.963 358.537 503.636C357.939 503.3 357.468 502.829 357.123 502.222C356.787 501.615 356.619 500.915 356.619 500.122C356.619 499.329 356.791 498.629 357.137 498.022C357.491 497.415 357.972 496.949 358.579 496.622C359.185 496.286 359.862 496.118 360.609 496.118C361.355 496.118 362.032 496.286 362.639 496.622C363.245 496.949 363.721 497.415 364.067 498.022C364.421 498.629 364.599 499.329 364.599 500.122C364.599 500.915 364.417 501.615 364.053 502.222C363.698 502.829 363.213 503.3 362.597 503.636C361.99 503.963 361.309 504.126 360.553 504.126ZM360.553 502.418C360.907 502.418 361.239 502.334 361.547 502.166C361.864 501.989 362.116 501.727 362.303 501.382C362.489 501.037 362.583 500.617 362.583 500.122C362.583 499.385 362.387 498.82 361.995 498.428C361.612 498.027 361.141 497.826 360.581 497.826C360.021 497.826 359.549 498.027 359.167 498.428C358.793 498.82 358.607 499.385 358.607 500.122C358.607 500.859 358.789 501.429 359.153 501.83C359.526 502.222 359.993 502.418 360.553 502.418ZM367.996 497.448C368.248 497.037 368.575 496.715 368.976 496.482C369.387 496.249 369.854 496.132 370.376 496.132V498.19H369.858C369.242 498.19 368.776 498.335 368.458 498.624C368.15 498.913 367.996 499.417 367.996 500.136V504H366.036V496.244H367.996V497.448ZM371.192 500.094C371.192 499.31 371.346 498.615 371.654 498.008C371.972 497.401 372.401 496.935 372.942 496.608C373.484 496.281 374.086 496.118 374.748 496.118C375.252 496.118 375.733 496.23 376.19 496.454C376.648 496.669 377.012 496.958 377.282 497.322V493.64H379.27V504H377.282V502.852C377.04 503.235 376.699 503.543 376.26 503.776C375.822 504.009 375.313 504.126 374.734 504.126C374.081 504.126 373.484 503.958 372.942 503.622C372.401 503.286 371.972 502.815 371.654 502.208C371.346 501.592 371.192 500.887 371.192 500.094ZM377.296 500.122C377.296 499.646 377.203 499.24 377.016 498.904C376.83 498.559 376.578 498.297 376.26 498.12C375.943 497.933 375.602 497.84 375.238 497.84C374.874 497.84 374.538 497.929 374.23 498.106C373.922 498.283 373.67 498.545 373.474 498.89C373.288 499.226 373.194 499.627 373.194 500.094C373.194 500.561 373.288 500.971 373.474 501.326C373.67 501.671 373.922 501.937 374.23 502.124C374.548 502.311 374.884 502.404 375.238 502.404C375.602 502.404 375.943 502.315 376.26 502.138C376.578 501.951 376.83 501.69 377.016 501.354C377.203 501.009 377.296 500.598 377.296 500.122ZM383.915 493.892C384.885 493.892 385.665 494.158 386.253 494.69C386.85 495.213 387.149 495.936 387.149 496.86C387.149 497.775 386.855 498.475 386.267 498.96C385.679 499.436 384.899 499.674 383.929 499.674L383.873 500.752H382.151L382.081 498.372H382.711C383.523 498.372 384.148 498.265 384.587 498.05C385.025 497.835 385.245 497.443 385.245 496.874C385.245 496.463 385.123 496.137 384.881 495.894C384.647 495.651 384.325 495.53 383.915 495.53C383.485 495.53 383.149 495.647 382.907 495.88C382.673 496.113 382.557 496.435 382.557 496.846H380.709C380.699 496.277 380.821 495.768 381.073 495.32C381.325 494.872 381.693 494.522 382.179 494.27C382.673 494.018 383.252 493.892 383.915 493.892ZM383.005 504.098C382.65 504.098 382.356 503.991 382.123 503.776C381.899 503.552 381.787 503.277 381.787 502.95C381.787 502.623 381.899 502.353 382.123 502.138C382.356 501.914 382.65 501.802 383.005 501.802C383.35 501.802 383.635 501.914 383.859 502.138C384.083 502.353 384.195 502.623 384.195 502.95C384.195 503.277 384.083 503.552 383.859 503.776C383.635 503.991 383.35 504.098 383.005 504.098Z" fill="#1F41BB"/>
<g filter="url(#filter0_d_3_13)">
<rect x="31" y="540" width="357" height="60" rx="10" fill="#1F41BB" shape-rendering="crispEdges"/>
<path d="M175.657 577.14C174.684 577.14 173.804 576.973 173.017 576.64C172.244 576.307 171.63 575.827 171.177 575.2C170.724 574.573 170.49 573.833 170.477 572.98H173.477C173.517 573.553 173.717 574.007 174.077 574.34C174.45 574.673 174.957 574.84 175.597 574.84C176.25 574.84 176.764 574.687 177.137 574.38C177.51 574.06 177.697 573.647 177.697 573.14C177.697 572.727 177.57 572.387 177.317 572.12C177.064 571.853 176.744 571.647 176.357 571.5C175.984 571.34 175.464 571.167 174.797 570.98C173.89 570.713 173.15 570.453 172.577 570.2C172.017 569.933 171.53 569.54 171.117 569.02C170.717 568.487 170.517 567.78 170.517 566.9C170.517 566.073 170.724 565.353 171.137 564.74C171.55 564.127 172.13 563.66 172.877 563.34C173.624 563.007 174.477 562.84 175.437 562.84C176.877 562.84 178.044 563.193 178.937 563.9C179.844 564.593 180.344 565.567 180.437 566.82H177.357C177.33 566.34 177.124 565.947 176.737 565.64C176.364 565.32 175.864 565.16 175.237 565.16C174.69 565.16 174.25 565.3 173.917 565.58C173.597 565.86 173.437 566.267 173.437 566.8C173.437 567.173 173.557 567.487 173.797 567.74C174.05 567.98 174.357 568.18 174.717 568.34C175.09 568.487 175.61 568.66 176.277 568.86C177.184 569.127 177.924 569.393 178.497 569.66C179.07 569.927 179.564 570.327 179.977 570.86C180.39 571.393 180.597 572.093 180.597 572.96C180.597 573.707 180.404 574.4 180.017 575.04C179.63 575.68 179.064 576.193 178.317 576.58C177.57 576.953 176.684 577.14 175.657 577.14ZM186.445 564.6C185.951 564.6 185.538 564.447 185.205 564.14C184.885 563.82 184.725 563.427 184.725 562.96C184.725 562.493 184.885 562.107 185.205 561.8C185.538 561.48 185.951 561.32 186.445 561.32C186.938 561.32 187.345 561.48 187.665 561.8C187.998 562.107 188.165 562.493 188.165 562.96C188.165 563.427 187.998 563.82 187.665 564.14C187.345 564.447 186.938 564.6 186.445 564.6ZM187.825 565.92V577H185.025V565.92H187.825ZM196.931 565.74C197.758 565.74 198.484 565.907 199.111 566.24C199.738 566.56 200.231 566.98 200.591 567.5V565.92H203.411V577.08C203.411 578.107 203.204 579.02 202.791 579.82C202.378 580.633 201.758 581.273 200.931 581.74C200.104 582.22 199.104 582.46 197.931 582.46C196.358 582.46 195.064 582.093 194.051 581.36C193.051 580.627 192.484 579.627 192.351 578.36H195.131C195.278 578.867 195.591 579.267 196.071 579.56C196.564 579.867 197.158 580.02 197.851 580.02C198.664 580.02 199.324 579.773 199.831 579.28C200.338 578.8 200.591 578.067 200.591 577.08V575.36C200.231 575.88 199.731 576.313 199.091 576.66C198.464 577.007 197.744 577.18 196.931 577.18C195.998 577.18 195.144 576.94 194.371 576.46C193.598 575.98 192.984 575.307 192.531 574.44C192.091 573.56 191.871 572.553 191.871 571.42C191.871 570.3 192.091 569.307 192.531 568.44C192.984 567.573 193.591 566.907 194.351 566.44C195.124 565.973 195.984 565.74 196.931 565.74ZM200.591 571.46C200.591 570.78 200.458 570.2 200.191 569.72C199.924 569.227 199.564 568.853 199.111 568.6C198.658 568.333 198.171 568.2 197.651 568.2C197.131 568.2 196.651 568.327 196.211 568.58C195.771 568.833 195.411 569.207 195.131 569.7C194.864 570.18 194.731 570.753 194.731 571.42C194.731 572.087 194.864 572.673 195.131 573.18C195.411 573.673 195.771 574.053 196.211 574.32C196.664 574.587 197.144 574.72 197.651 574.72C198.171 574.72 198.658 574.593 199.111 574.34C199.564 574.073 199.924 573.7 200.191 573.22C200.458 572.727 200.591 572.14 200.591 571.46ZM214.286 565.76C215.606 565.76 216.672 566.18 217.486 567.02C218.299 567.847 218.706 569.007 218.706 570.5V577H215.906V570.88C215.906 570 215.686 569.327 215.246 568.86C214.806 568.38 214.206 568.14 213.446 568.14C212.672 568.14 212.059 568.38 211.606 568.86C211.166 569.327 210.946 570 210.946 570.88V577H208.146V565.92H210.946V567.3C211.319 566.82 211.792 566.447 212.366 566.18C212.952 565.9 213.592 565.76 214.286 565.76ZM231.554 564.6C231.061 564.6 230.647 564.447 230.314 564.14C229.994 563.82 229.834 563.427 229.834 562.96C229.834 562.493 229.994 562.107 230.314 561.8C230.647 561.48 231.061 561.32 231.554 561.32C232.047 561.32 232.454 561.48 232.774 561.8C233.107 562.107 233.274 562.493 233.274 562.96C233.274 563.427 233.107 563.82 232.774 564.14C232.454 564.447 232.047 564.6 231.554 564.6ZM232.934 565.92V577H230.134V565.92H232.934ZM243.84 565.76C245.16 565.76 246.227 566.18 247.04 567.02C247.854 567.847 248.26 569.007 248.26 570.5V577H245.46V570.88C245.46 570 245.24 569.327 244.8 568.86C244.36 568.38 243.76 568.14 243 568.14C242.227 568.14 241.614 568.38 241.16 568.86C240.72 569.327 240.5 570 240.5 570.88V577H237.7V565.92H240.5V567.3C240.874 566.82 241.347 566.447 241.92 566.18C242.507 565.9 243.147 565.76 243.84 565.76Z" fill="white"/>
</g>
<rect x="31" y="630" width="357" height="41" rx="10" fill="white"/>
<path d="M141.461 645.088C142.525 645.088 143.468 645.359 144.289 645.9C145.12 646.441 145.712 647.202 146.067 648.182H143.701C143.262 647.323 142.516 646.894 141.461 646.894C140.873 646.894 140.35 647.025 139.893 647.286C139.445 647.547 139.095 647.921 138.843 648.406C138.591 648.891 138.465 649.451 138.465 650.086C138.465 650.721 138.591 651.281 138.843 651.766C139.095 652.251 139.445 652.629 139.893 652.9C140.35 653.161 140.873 653.292 141.461 653.292C142.506 653.292 143.253 652.863 143.701 652.004H146.067C145.712 652.984 145.12 653.745 144.289 654.286C143.468 654.818 142.525 655.084 141.461 655.084C140.546 655.084 139.706 654.874 138.941 654.454C138.176 654.025 137.569 653.432 137.121 652.676C136.682 651.911 136.463 651.047 136.463 650.086C136.463 649.134 136.682 648.28 137.121 647.524C137.569 646.759 138.176 646.161 138.941 645.732C139.706 645.303 140.546 645.088 141.461 645.088ZM149.743 648.616C149.985 648.149 150.298 647.785 150.681 647.524C151.073 647.263 151.516 647.132 152.011 647.132V649.148H151.521C150.933 649.148 150.489 649.297 150.191 649.596C149.892 649.885 149.743 650.389 149.743 651.108V655H147.769V647.244H149.743V648.616ZM160.597 651.01C160.597 651.281 160.579 651.533 160.541 651.766H154.885C154.932 652.27 155.119 652.676 155.445 652.984C155.772 653.292 156.187 653.446 156.691 653.446C157.083 653.446 157.396 653.371 157.629 653.222C157.863 653.073 158.054 652.867 158.203 652.606H160.331C160.107 653.343 159.673 653.945 159.029 654.412C158.385 654.879 157.606 655.112 156.691 655.112C155.954 655.112 155.296 654.949 154.717 654.622C154.139 654.286 153.686 653.819 153.359 653.222C153.033 652.615 152.869 651.911 152.869 651.108C152.869 650.305 153.033 649.605 153.359 649.008C153.686 648.411 154.139 647.949 154.717 647.622C155.305 647.295 155.973 647.132 156.719 647.132C157.466 647.132 158.129 647.291 158.707 647.608C159.295 647.925 159.757 648.378 160.093 648.966C160.429 649.545 160.597 650.226 160.597 651.01ZM158.553 650.492C158.525 649.979 158.334 649.568 157.979 649.26C157.634 648.952 157.205 648.798 156.691 648.798C156.215 648.798 155.809 648.952 155.473 649.26C155.147 649.568 154.951 649.979 154.885 650.492H158.553ZM165.204 647.132C165.754 647.132 166.244 647.249 166.674 647.482C167.103 647.715 167.448 648.037 167.71 648.448V647.244H169.67V655H167.71V653.698C167.439 654.137 167.089 654.482 166.66 654.734C166.24 654.986 165.754 655.112 165.204 655.112C164.541 655.112 163.934 654.944 163.384 654.608C162.842 654.263 162.408 653.787 162.082 653.18C161.764 652.573 161.606 651.883 161.606 651.108C161.606 650.333 161.764 649.647 162.082 649.05C162.408 648.443 162.842 647.972 163.384 647.636C163.934 647.3 164.541 647.132 165.204 647.132ZM165.652 648.84C165.306 648.84 164.975 648.929 164.658 649.106C164.35 649.283 164.098 649.545 163.902 649.89C163.706 650.226 163.608 650.632 163.608 651.108C163.608 651.584 163.706 651.999 163.902 652.354C164.098 652.699 164.35 652.961 164.658 653.138C164.975 653.315 165.306 653.404 165.652 653.404C166.006 653.404 166.338 653.315 166.646 653.138C166.963 652.961 167.22 652.699 167.416 652.354C167.612 652.009 167.71 651.598 167.71 651.122C167.71 650.646 167.612 650.235 167.416 649.89C167.22 649.545 166.963 649.283 166.646 649.106C166.338 648.929 166.006 648.84 165.652 648.84ZM175.711 653.348V655H174.465C173.672 655 173.06 654.818 172.631 654.454C172.202 654.09 171.987 653.488 171.987 652.648V648.854H171.161V647.244H171.987V645.326H173.961V647.244H175.697V648.854H173.961V652.648C173.961 652.9 174.022 653.082 174.143 653.194C174.264 653.297 174.474 653.348 174.773 653.348H175.711ZM184.427 651.01C184.427 651.281 184.409 651.533 184.371 651.766H178.715C178.762 652.27 178.949 652.676 179.275 652.984C179.602 653.292 180.017 653.446 180.521 653.446C180.913 653.446 181.226 653.371 181.459 653.222C181.693 653.073 181.884 652.867 182.033 652.606H184.161C183.937 653.343 183.503 653.945 182.859 654.412C182.215 654.879 181.436 655.112 180.521 655.112C179.784 655.112 179.126 654.949 178.547 654.622C177.969 654.286 177.516 653.819 177.189 653.222C176.863 652.615 176.699 651.911 176.699 651.108C176.699 650.305 176.863 649.605 177.189 649.008C177.516 648.411 177.969 647.949 178.547 647.622C179.135 647.295 179.803 647.132 180.549 647.132C181.296 647.132 181.959 647.291 182.537 647.608C183.125 647.925 183.587 648.378 183.923 648.966C184.259 649.545 184.427 650.226 184.427 651.01ZM182.383 650.492C182.355 649.979 182.164 649.568 181.809 649.26C181.464 648.952 181.035 648.798 180.521 648.798C180.045 648.798 179.639 648.952 179.303 649.26C178.977 649.568 178.781 649.979 178.715 650.492H182.383ZM194.561 647.132C195.14 647.132 195.653 647.263 196.101 647.524C196.558 647.776 196.918 648.154 197.179 648.658C197.44 649.153 197.571 649.745 197.571 650.436V655H195.611V650.716C195.611 650.109 195.457 649.647 195.149 649.33C194.841 649.003 194.421 648.84 193.889 648.84C193.357 648.84 192.932 649.003 192.615 649.33C192.307 649.647 192.153 650.109 192.153 650.716V655H190.179V647.244H192.153V648.406C192.396 647.995 192.722 647.683 193.133 647.468C193.553 647.244 194.029 647.132 194.561 647.132ZM206.781 651.01C206.781 651.281 206.762 651.533 206.725 651.766H201.069C201.115 652.27 201.302 652.676 201.629 652.984C201.955 653.292 202.371 653.446 202.875 653.446C203.267 653.446 203.579 653.371 203.813 653.222C204.046 653.073 204.237 652.867 204.387 652.606H206.515C206.291 653.343 205.857 653.945 205.213 654.412C204.569 654.879 203.789 655.112 202.875 655.112C202.137 655.112 201.479 654.949 200.901 654.622C200.322 654.286 199.869 653.819 199.543 653.222C199.216 652.615 199.053 651.911 199.053 651.108C199.053 650.305 199.216 649.605 199.543 649.008C199.869 648.411 200.322 647.949 200.901 647.622C201.489 647.295 202.156 647.132 202.903 647.132C203.649 647.132 204.312 647.291 204.891 647.608C205.479 647.925 205.941 648.378 206.277 648.966C206.613 649.545 206.781 650.226 206.781 651.01ZM204.737 650.492C204.709 649.979 204.517 649.568 204.163 649.26C203.817 648.952 203.388 648.798 202.875 648.798C202.399 648.798 201.993 648.952 201.657 649.26C201.33 649.568 201.134 649.979 201.069 650.492H204.737ZM219.017 647.244L216.637 655H214.537L213.207 649.792L211.863 655H209.763L207.383 647.244H209.371L210.799 653.138L212.227 647.244H214.299L215.699 653.124L217.127 647.244H219.017ZM227.397 647.132C227.948 647.132 228.438 647.249 228.867 647.482C229.296 647.715 229.642 648.037 229.903 648.448V647.244H231.863V655H229.903V653.698C229.632 654.137 229.282 654.482 228.853 654.734C228.433 654.986 227.948 655.112 227.397 655.112C226.734 655.112 226.128 654.944 225.577 654.608C225.036 654.263 224.602 653.787 224.275 653.18C223.958 652.573 223.799 651.883 223.799 651.108C223.799 650.333 223.958 649.647 224.275 649.05C224.602 648.443 225.036 647.972 225.577 647.636C226.128 647.3 226.734 647.132 227.397 647.132ZM227.845 648.84C227.5 648.84 227.168 648.929 226.851 649.106C226.543 649.283 226.291 649.545 226.095 649.89C225.899 650.226 225.801 650.632 225.801 651.108C225.801 651.584 225.899 651.999 226.095 652.354C226.291 652.699 226.543 652.961 226.851 653.138C227.168 653.315 227.5 653.404 227.845 653.404C228.2 653.404 228.531 653.315 228.839 653.138C229.156 652.961 229.413 652.699 229.609 652.354C229.805 652.009 229.903 651.598 229.903 651.122C229.903 650.646 229.805 650.235 229.609 649.89C229.413 649.545 229.156 649.283 228.839 649.106C228.531 648.929 228.2 648.84 227.845 648.84ZM237.232 647.132C238.175 647.132 238.964 647.361 239.598 647.818C240.233 648.275 240.658 648.924 240.872 649.764H238.744C238.623 649.465 238.436 649.232 238.184 649.064C237.932 648.887 237.615 648.798 237.232 648.798C236.663 648.798 236.215 649.008 235.888 649.428C235.571 649.839 235.412 650.403 235.412 651.122C235.412 651.841 235.571 652.41 235.888 652.83C236.215 653.241 236.663 653.446 237.232 653.446C237.624 653.446 237.942 653.367 238.184 653.208C238.427 653.049 238.614 652.802 238.744 652.466H240.872C240.648 653.278 240.214 653.922 239.57 654.398C238.936 654.874 238.156 655.112 237.232 655.112C236.495 655.112 235.837 654.949 235.258 654.622C234.68 654.295 234.227 653.833 233.9 653.236C233.574 652.629 233.41 651.925 233.41 651.122C233.41 650.319 233.574 649.619 233.9 649.022C234.227 648.415 234.68 647.949 235.258 647.622C235.837 647.295 236.495 647.132 237.232 647.132ZM245.627 647.132C246.569 647.132 247.358 647.361 247.993 647.818C248.627 648.275 249.052 648.924 249.267 649.764H247.139C247.017 649.465 246.831 649.232 246.579 649.064C246.327 648.887 246.009 648.798 245.627 648.798C245.057 648.798 244.609 649.008 244.283 649.428C243.965 649.839 243.807 650.403 243.807 651.122C243.807 651.841 243.965 652.41 244.283 652.83C244.609 653.241 245.057 653.446 245.627 653.446C246.019 653.446 246.336 653.367 246.579 653.208C246.821 653.049 247.008 652.802 247.139 652.466H249.267C249.043 653.278 248.609 653.922 247.965 654.398C247.33 654.874 246.551 655.112 245.627 655.112C244.889 655.112 244.231 654.949 243.653 654.622C243.074 654.295 242.621 653.833 242.295 653.236C241.968 652.629 241.805 651.925 241.805 651.122C241.805 650.319 241.968 649.619 242.295 649.022C242.621 648.415 243.074 647.949 243.653 647.622C244.231 647.295 244.889 647.132 245.627 647.132ZM254.217 647.132C254.955 647.132 255.627 647.295 256.233 647.622C256.84 647.949 257.321 648.415 257.675 649.022C258.03 649.619 258.207 650.315 258.207 651.108C258.207 651.901 258.03 652.601 257.675 653.208C257.321 653.815 256.835 654.286 256.219 654.622C255.613 654.949 254.936 655.112 254.189 655.112C253.452 655.112 252.78 654.949 252.173 654.622C251.567 654.286 251.086 653.815 250.731 653.208C250.386 652.601 250.213 651.901 250.213 651.108C250.213 650.315 250.391 649.619 250.745 649.022C251.1 648.415 251.581 647.949 252.187 647.622C252.794 647.295 253.471 647.132 254.217 647.132ZM254.203 648.798C253.643 648.798 253.172 648.999 252.789 649.4C252.407 649.801 252.215 650.375 252.215 651.122C252.215 651.626 252.304 652.055 252.481 652.41C252.668 652.755 252.911 653.017 253.209 653.194C253.508 653.362 253.835 653.446 254.189 653.446C254.535 653.446 254.861 653.357 255.169 653.18C255.477 653.003 255.725 652.741 255.911 652.396C256.107 652.041 256.205 651.617 256.205 651.122C256.205 650.618 256.112 650.193 255.925 649.848C255.739 649.493 255.491 649.232 255.183 649.064C254.885 648.887 254.558 648.798 254.203 648.798ZM267.091 647.244V655H265.117V653.824C264.874 654.235 264.543 654.552 264.123 654.776C263.712 654.991 263.236 655.098 262.695 655.098C262.125 655.098 261.612 654.972 261.155 654.72C260.707 654.459 260.352 654.081 260.091 653.586C259.829 653.082 259.699 652.485 259.699 651.794V647.244H261.659V651.514C261.659 652.121 261.813 652.587 262.121 652.914C262.429 653.241 262.849 653.404 263.381 653.404C263.913 653.404 264.333 653.241 264.641 652.914C264.958 652.587 265.117 652.121 265.117 651.514V647.244H267.091ZM273.571 647.132C274.149 647.132 274.663 647.263 275.111 647.524C275.568 647.776 275.927 648.154 276.189 648.658C276.45 649.153 276.581 649.745 276.581 650.436V655H274.621V650.716C274.621 650.109 274.467 649.647 274.159 649.33C273.851 649.003 273.431 648.84 272.899 648.84C272.367 648.84 271.942 649.003 271.625 649.33C271.317 649.647 271.163 650.109 271.163 650.716V655H269.189V647.244H271.163V648.406C271.405 647.995 271.732 647.683 272.143 647.468C272.563 647.244 273.039 647.132 273.571 647.132ZM282.557 653.348V655H281.311C280.517 655 279.906 654.818 279.477 654.454C279.047 654.09 278.833 653.488 278.833 652.648V648.854H278.007V647.244H278.833V645.326H280.807V647.244H282.543V648.854H280.807V652.648C280.807 652.9 280.867 653.082 280.989 653.194C281.11 653.297 281.32 653.348 281.619 653.348H282.557Z" fill="#494949"/>
<path d="M159.599 741.088C160.523 741.088 161.363 741.303 162.119 741.732C162.884 742.161 163.486 742.759 163.925 743.524C164.373 744.28 164.597 745.134 164.597 746.086C164.597 747.047 164.373 747.911 163.925 748.676C163.486 749.432 162.884 750.025 162.119 750.454C161.353 750.883 160.513 751.098 159.599 751.098C158.684 751.098 157.844 750.883 157.079 750.454C156.313 750.025 155.707 749.432 155.259 748.676C154.82 747.911 154.601 747.047 154.601 746.086C154.601 745.134 154.82 744.28 155.259 743.524C155.707 742.759 156.313 742.161 157.079 741.732C157.844 741.303 158.684 741.088 159.599 741.088ZM159.599 742.894C159.011 742.894 158.488 743.025 158.031 743.286C157.583 743.547 157.233 743.921 156.981 744.406C156.729 744.891 156.603 745.451 156.603 746.086C156.603 746.721 156.729 747.281 156.981 747.766C157.233 748.251 157.583 748.629 158.031 748.9C158.488 749.161 159.011 749.292 159.599 749.292C160.187 749.292 160.705 749.161 161.153 748.9C161.601 748.629 161.951 748.256 162.203 747.78C162.455 747.295 162.581 746.73 162.581 746.086C162.581 745.442 162.455 744.882 162.203 744.406C161.951 743.921 161.601 743.547 161.153 743.286C160.705 743.025 160.187 742.894 159.599 742.894ZM168.127 744.616C168.369 744.149 168.682 743.785 169.065 743.524C169.457 743.263 169.9 743.132 170.395 743.132V745.148H169.905C169.317 745.148 168.873 745.297 168.575 745.596C168.276 745.885 168.127 746.389 168.127 747.108V751H166.153V743.244H168.127V744.616ZM179.272 743.132C180.215 743.132 181.004 743.361 181.638 743.818C182.273 744.275 182.698 744.924 182.912 745.764H180.784C180.663 745.465 180.476 745.232 180.224 745.064C179.972 744.887 179.655 744.798 179.272 744.798C178.703 744.798 178.255 745.008 177.928 745.428C177.611 745.839 177.452 746.403 177.452 747.122C177.452 747.841 177.611 748.41 177.928 748.83C178.255 749.241 178.703 749.446 179.272 749.446C179.664 749.446 179.982 749.367 180.224 749.208C180.467 749.049 180.654 748.802 180.784 748.466H182.912C182.688 749.278 182.254 749.922 181.61 750.398C180.976 750.874 180.196 751.112 179.272 751.112C178.535 751.112 177.877 750.949 177.298 750.622C176.72 750.295 176.267 749.833 175.94 749.236C175.614 748.629 175.45 747.925 175.45 747.122C175.45 746.319 175.614 745.619 175.94 745.022C176.267 744.415 176.72 743.949 177.298 743.622C177.877 743.295 178.535 743.132 179.272 743.132ZM187.863 743.132C188.6 743.132 189.272 743.295 189.879 743.622C190.485 743.949 190.966 744.415 191.321 745.022C191.675 745.619 191.853 746.315 191.853 747.108C191.853 747.901 191.675 748.601 191.321 749.208C190.966 749.815 190.481 750.286 189.865 750.622C189.258 750.949 188.581 751.112 187.835 751.112C187.097 751.112 186.425 750.949 185.819 750.622C185.212 750.286 184.731 749.815 184.377 749.208C184.031 748.601 183.859 747.901 183.859 747.108C183.859 746.315 184.036 745.619 184.391 745.022C184.745 744.415 185.226 743.949 185.833 743.622C186.439 743.295 187.116 743.132 187.863 743.132ZM187.849 744.798C187.289 744.798 186.817 744.999 186.435 745.4C186.052 745.801 185.861 746.375 185.861 747.122C185.861 747.626 185.949 748.055 186.127 748.41C186.313 748.755 186.556 749.017 186.855 749.194C187.153 749.362 187.48 749.446 187.835 749.446C188.18 749.446 188.507 749.357 188.815 749.18C189.123 749.003 189.37 748.741 189.557 748.396C189.753 748.041 189.851 747.617 189.851 747.122C189.851 746.618 189.757 746.193 189.571 745.848C189.384 745.493 189.137 745.232 188.829 745.064C188.53 744.887 188.203 744.798 187.849 744.798ZM197.796 743.132C198.375 743.132 198.888 743.263 199.336 743.524C199.794 743.776 200.153 744.154 200.414 744.658C200.676 745.153 200.806 745.745 200.806 746.436V751H198.846V746.716C198.846 746.109 198.692 745.647 198.384 745.33C198.076 745.003 197.656 744.84 197.124 744.84C196.592 744.84 196.168 745.003 195.85 745.33C195.542 745.647 195.388 746.109 195.388 746.716V751H193.414V743.244H195.388V744.406C195.631 743.995 195.958 743.683 196.368 743.468C196.788 743.244 197.264 743.132 197.796 743.132ZM206.782 749.348V751H205.536C204.743 751 204.132 750.818 203.702 750.454C203.273 750.09 203.058 749.488 203.058 748.648V744.854H202.232V743.244H203.058V741.326H205.032V743.244H206.768V744.854H205.032V748.648C205.032 748.9 205.093 749.082 205.214 749.194C205.336 749.297 205.546 749.348 205.844 749.348H206.782ZM208.107 741.27C208.107 740.934 208.223 740.649 208.457 740.416C208.69 740.183 208.97 740.066 209.297 740.066C209.633 740.066 209.917 740.183 210.151 740.416C210.384 740.649 210.501 740.934 210.501 741.27C210.501 741.606 210.384 741.891 210.151 742.124C209.917 742.357 209.633 742.474 209.297 742.474C208.97 742.474 208.69 742.357 208.457 742.124C208.223 741.891 208.107 741.606 208.107 741.27ZM210.291 743.244V751H208.317V743.244H210.291ZM216.773 743.132C217.351 743.132 217.865 743.263 218.313 743.524C218.77 743.776 219.129 744.154 219.391 744.658C219.652 745.153 219.783 745.745 219.783 746.436V751H217.823V746.716C217.823 746.109 217.669 745.647 217.361 745.33C217.053 745.003 216.633 744.84 216.101 744.84C215.569 744.84 215.144 745.003 214.827 745.33C214.519 745.647 214.365 746.109 214.365 746.716V751H212.391V743.244H214.365V744.406C214.607 743.995 214.934 743.683 215.345 743.468C215.765 743.244 216.241 743.132 216.773 743.132ZM229.133 743.244V751H227.159V749.824C226.916 750.235 226.585 750.552 226.165 750.776C225.754 750.991 225.278 751.098 224.737 751.098C224.167 751.098 223.654 750.972 223.197 750.72C222.749 750.459 222.394 750.081 222.133 749.586C221.871 749.082 221.741 748.485 221.741 747.794V743.244H223.701V747.514C223.701 748.121 223.855 748.587 224.163 748.914C224.471 749.241 224.891 749.404 225.423 749.404C225.955 749.404 226.375 749.241 226.683 748.914C227 748.587 227.159 748.121 227.159 747.514V743.244H229.133ZM238.413 747.01C238.413 747.281 238.394 747.533 238.357 747.766H232.701C232.747 748.27 232.934 748.676 233.261 748.984C233.587 749.292 234.003 749.446 234.507 749.446C234.899 749.446 235.211 749.371 235.445 749.222C235.678 749.073 235.869 748.867 236.019 748.606H238.147C237.923 749.343 237.489 749.945 236.845 750.412C236.201 750.879 235.421 751.112 234.507 751.112C233.769 751.112 233.111 750.949 232.533 750.622C231.954 750.286 231.501 749.819 231.175 749.222C230.848 748.615 230.685 747.911 230.685 747.108C230.685 746.305 230.848 745.605 231.175 745.008C231.501 744.411 231.954 743.949 232.533 743.622C233.121 743.295 233.788 743.132 234.535 743.132C235.281 743.132 235.944 743.291 236.523 743.608C237.111 743.925 237.573 744.378 237.909 744.966C238.245 745.545 238.413 746.226 238.413 747.01ZM236.369 746.492C236.341 745.979 236.149 745.568 235.795 745.26C235.449 744.952 235.02 744.798 234.507 744.798C234.031 744.798 233.625 744.952 233.289 745.26C232.962 745.568 232.766 745.979 232.701 746.492H236.369ZM254.846 743.244L252.466 751H250.366L249.036 745.792L247.692 751H245.592L243.212 743.244H245.2L246.628 749.138L248.056 743.244H250.128L251.528 749.124L252.956 743.244H254.846ZM255.767 741.27C255.767 740.934 255.883 740.649 256.117 740.416C256.35 740.183 256.63 740.066 256.957 740.066C257.293 740.066 257.577 740.183 257.811 740.416C258.044 740.649 258.161 740.934 258.161 741.27C258.161 741.606 258.044 741.891 257.811 742.124C257.577 742.357 257.293 742.474 256.957 742.474C256.63 742.474 256.35 742.357 256.117 742.124C255.883 741.891 255.767 741.606 255.767 741.27ZM257.951 743.244V751H255.977V743.244H257.951ZM263.999 749.348V751H262.753C261.96 751 261.348 750.818 260.919 750.454C260.49 750.09 260.275 749.488 260.275 748.648V744.854H259.449V743.244H260.275V741.326H262.249V743.244H263.985V744.854H262.249V748.648C262.249 748.9 262.31 749.082 262.431 749.194C262.552 749.297 262.762 749.348 263.061 749.348H263.999ZM269.915 743.132C270.494 743.132 271.007 743.263 271.455 743.524C271.913 743.776 272.272 744.154 272.533 744.658C272.795 745.153 272.925 745.745 272.925 746.436V751H270.965V746.716C270.965 746.109 270.811 745.647 270.503 745.33C270.195 745.003 269.775 744.84 269.243 744.84C268.711 744.84 268.287 745.003 267.969 745.33C267.661 745.647 267.507 746.109 267.507 746.716V751H265.533V740.64H267.507V744.406C267.75 743.995 268.077 743.683 268.487 743.468C268.907 743.244 269.383 743.132 269.915 743.132Z" fill="#1F41BB"/>
<rect x="114" y="777" width="60" height="44" rx="10" fill="#ECECEC"/>
<path d="M144 808.375C142.458 808.375 140.94 807.995 139.58 807.269C138.22 806.542 137.06 805.491 136.204 804.209C135.347 802.928 134.819 801.454 134.668 799.92C134.517 798.385 134.747 796.837 135.337 795.413C135.927 793.988 136.859 792.731 138.051 791.753C139.243 790.775 140.657 790.106 142.17 789.805C143.682 789.504 145.245 789.581 146.72 790.029C148.196 790.477 149.538 791.281 150.628 792.372C150.733 792.476 150.816 792.601 150.873 792.737C150.93 792.874 150.959 793.021 150.959 793.169C150.959 793.317 150.93 793.463 150.873 793.6C150.816 793.737 150.733 793.861 150.628 793.966C150.415 794.173 150.129 794.289 149.831 794.289C149.534 794.289 149.248 794.173 149.034 793.966C148.376 793.3 147.592 792.773 146.727 792.414C145.863 792.055 144.936 791.872 144 791.875C142.639 791.876 141.307 792.267 140.161 793.001C139.015 793.735 138.104 794.782 137.534 796.018C136.964 797.254 136.761 798.627 136.947 799.975C137.133 801.323 137.702 802.59 138.585 803.625C139.469 804.66 140.63 805.421 141.932 805.817C143.234 806.213 144.622 806.227 145.933 805.859C147.243 805.491 148.42 804.755 149.325 803.739C150.23 802.723 150.826 801.469 151.041 800.125H144C143.702 800.125 143.415 800.006 143.204 799.795C142.994 799.585 142.875 799.298 142.875 799C142.875 798.702 142.994 798.415 143.204 798.205C143.415 797.994 143.702 797.875 144 797.875H152.25C152.548 797.875 152.835 797.994 153.045 798.205C153.256 798.415 153.375 798.702 153.375 799C153.37 801.485 152.381 803.867 150.624 805.624C148.867 807.381 146.485 808.37 144 808.375Z" fill="black"/>
<rect x="184" y="777" width="60" height="44" rx="10" fill="#ECECEC"/>
<path d="M224 799C224 793.48 219.52 789 214 789C208.48 789 204 793.48 204 799C204 803.84 207.44 807.87 212 808.8V802H210V799H212V796.5C212 794.57 213.57 793 215.5 793H218V796H216C215.45 796 215 796.45 215 797V799H218V802H215V808.95C220.05 808.45 224 804.19 224 799Z" fill="black"/>
<rect x="254" y="777" width="60" height="44" rx="10" fill="#ECECEC"/>
<path d="M289.05 807.28C288.07 808.23 287 808.08 285.97 807.63C284.88 807.17 283.88 807.15 282.73 807.63C281.29 808.25 280.53 808.07 279.67 807.28C274.79 802.25 275.51 794.59 281.05 794.31C282.4 794.38 283.34 795.05 284.13 795.11C285.31 794.87 286.44 794.18 287.7 794.27C289.21 794.39 290.35 794.99 291.1 796.07C287.98 797.94 288.72 802.05 291.58 803.2C291.01 804.7 290.27 806.19 289.04 807.29L289.05 807.28ZM284.03 794.25C283.88 792.02 285.69 790.18 287.77 790C288.06 792.58 285.43 794.5 284.03 794.25Z" fill="black"/>
</g>
<defs>
<filter id="filter0_d_3_13" x="11" y="530" width="397" height="100" filterUnits="userSpaceOnUse" color-interpolation-filters="sRGB">
<feFlood flood-opacity="0" result="BackgroundImageFix"/>
<feColorMatrix in="SourceAlpha" type="matrix" values="0 0 0 0 0 0 0 0 0 0 0 0 0 0 0 0 0 0 127 0" result="hardAlpha"/>
<feOffset dy="10"/>
<feGaussianBlur stdDeviation="10"/>
<feComposite in2="hardAlpha" operator="out"/>
<feColorMatrix type="matrix" values="0 0 0 0 0.795833 0 0 0 0 0.84075 0 0 0 0 1 0 0 0 1 0"/>
<feBlend mode="normal" in2="BackgroundImageFix" result="effect1_dropShadow_3_13"/>
<feBlend mode="normal" in="SourceGraphic" in2="effect1_dropShadow_3_13" result="shape"/>
</filter>
<clipPath id="clip0_3_13">
<rect width="428" height="926" rx="50" fill="white"/>
</clipPath>
</defs>
</svg>
